<svg width="95" height="21" viewBox="0 0 95 21" fill="none" xmlns="http://www.w3.org/2000/svg">
<path d="M21.3499 4.43412e-10C21.4677 -5.7531e-06 21.5808 0.0559807 21.6645 0.155777C21.7482 0.255573 21.7958 0.391101 21.7969 0.532872V19.8132C21.7969 19.9549 21.7503 20.091 21.6674 20.1917C21.5844 20.2924 21.4718 20.3496 21.3539 20.3509H19.1714C19.0536 20.3496 18.9409 20.2924 18.858 20.1917C18.775 20.091 18.7285 19.9549 18.7285 19.8132V7.27128C18.5567 7.43922 18.3795 7.6007 18.1969 7.75571C17.6775 8.1917 17.15 8.55987 16.6386 8.91834C16.1272 9.27682 15.7889 9.55779 15.3863 9.8436C14.6324 10.3674 13.976 11.072 13.4579 11.9137C12.9397 12.7553 12.5709 13.7161 12.3742 14.7363C12.3522 14.8551 12.297 14.9612 12.2179 15.0369C12.1388 15.1127 12.0405 15.1537 11.9393 15.1529H9.85751C9.75638 15.1537 9.65809 15.1127 9.57897 15.0369C9.49986 14.9612 9.44469 14.8551 9.42262 14.7363C9.22599 13.7148 8.85677 12.7528 8.33791 11.9103C7.81904 11.0677 7.16164 10.3626 6.40658 9.83876C6.0039 9.55295 5.60123 9.23807 5.15425 8.9135C4.70728 8.58893 4.11535 8.18686 3.5959 7.75087C3.41335 7.59908 3.23617 7.4376 3.06437 7.26644V19.8132C3.06437 19.9549 3.01783 20.091 2.93488 20.1917C2.85192 20.2924 2.73927 20.3496 2.62142 20.3509H0.442943C0.325098 20.3496 0.212442 20.2924 0.129488 20.1917C0.0465333 20.091 -4.7822e-06 19.9549 3.68581e-10 19.8132V0.537717C3.68581e-10 0.395106 0.0470914 0.258335 0.130915 0.157493C0.214738 0.0566521 0.328427 4.43412e-10 0.446971 4.43412e-10H2.60129C2.7062 0.00174281 2.80727 0.0478324 2.88678 0.130199C2.96629 0.212566 3.01917 0.32596 3.03618 0.450519C3.15698 1.39031 3.61603 3.58478 5.29519 4.81038C5.73813 5.12526 6.17705 5.4789 6.66026 5.82284C7.14347 6.16679 7.61461 6.48166 8.07366 6.86921C9.01109 7.61896 9.8499 8.53336 10.5622 9.58201C10.6025 9.6435 10.6539 9.69319 10.7125 9.72736C10.7711 9.76152 10.8353 9.77927 10.9004 9.77927C10.9656 9.77927 11.0298 9.76152 11.0884 9.72736C11.147 9.69319 11.1984 9.6435 11.2387 9.58201C11.9495 8.53201 12.7869 7.61597 13.7232 6.86436C14.2024 6.47682 14.7017 6.12803 15.1406 5.818C15.5795 5.50796 16.0708 5.12526 16.5017 4.81038C18.1849 3.60415 18.6439 1.41938 18.7647 0.450519C18.7817 0.32596 18.8346 0.212566 18.9141 0.130199C18.9936 0.0478324 19.0947 0.00174281 19.1996 4.43412e-10H21.3499Z" fill="#3A3845"/>
<path d="M44.5845 10.1754C44.5845 15.7816 40.1416 20.3509 34.6768 20.3509C29.2121 20.3509 24.7692 15.7865 24.7692 10.1754C24.7692 4.56441 29.2121 0 34.6768 0C40.1416 0 44.5845 4.56441 44.5845 10.1754ZM34.6768 3.69708C30.9328 3.69708 27.8878 6.60434 27.8878 10.1754C27.8878 13.7465 30.9328 16.6296 34.6768 16.6296C38.4208 16.6296 41.47 13.7223 41.47 10.1561C41.47 6.58981 38.4208 3.69708 34.6768 3.69708Z" fill="#3A3845"/>
<path d="M67.3721 10.1754C67.3721 15.7816 62.7071 20.3509 56.9691 20.3509C51.2311 20.3509 46.566 15.7865 46.566 10.1754C46.566 4.56441 51.2311 0 56.9691 0C62.7071 0 67.3721 4.56441 67.3721 10.1754ZM56.9691 3.69708C53.0379 3.69708 49.8363 6.60434 49.8363 10.1754C49.8363 13.7465 53.0379 16.6296 56.9691 16.6296C60.9003 16.6296 64.0976 13.7223 64.0976 10.1561C64.0976 6.58981 60.8874 3.69708 56.9691 3.69708Z" fill="#3A3845"/>
<path d="M85.1016 10.0252V0.532998C85.1016 0.463004 85.1131 0.393695 85.1354 0.329028C85.1577 0.264362 85.1905 0.205605 85.2317 0.156111C85.2729 0.106618 85.3219 0.0673579 85.3758 0.0405722C85.4297 0.0137865 85.4874 0 85.5457 0H87.7341C87.7924 0 87.8502 0.0137865 87.9041 0.0405722C87.9579 0.0673579 88.0069 0.106618 88.0481 0.156111C88.0894 0.205605 88.1221 0.264362 88.1444 0.329028C88.1667 0.393695 88.1782 0.463004 88.1782 0.532998V19.8179C88.1782 19.8879 88.1667 19.9572 88.1444 20.0218C88.1221 20.0865 88.0894 20.1453 88.0481 20.1948C88.0069 20.2443 87.9579 20.2835 87.9041 20.3103C87.8502 20.3371 87.7924 20.3509 87.7341 20.3509H85.5659C85.5076 20.3509 85.4499 20.3371 85.396 20.3103C85.3421 20.2835 85.2931 20.2443 85.2519 20.1948C85.2106 20.1453 85.1779 20.0865 85.1556 20.0218C85.1333 19.9572 85.1218 19.8879 85.1218 19.8179V18.3013C85.124 17.8265 85.0356 17.3574 84.8634 16.93C84.2214 15.3698 82.562 12.4819 78.686 10.7133C77.0486 9.98709 75.5149 8.96058 74.1397 7.67034C74.0748 7.60662 73.9961 7.56648 73.9128 7.55466C73.8295 7.54283 73.7451 7.55981 73.6696 7.6036C73.5941 7.64738 73.5306 7.71615 73.4865 7.8018C73.4425 7.88745 73.4198 7.98642 73.421 8.08705V19.8179C73.421 19.9592 73.3742 20.0948 73.2909 20.1948C73.2077 20.2947 73.0947 20.3509 72.9769 20.3509H70.7885C70.6708 20.3509 70.5578 20.2947 70.4745 20.1948C70.3912 20.0948 70.3444 19.9592 70.3444 19.8179V0.532998C70.3444 0.391638 70.3912 0.256068 70.4745 0.156111C70.5578 0.0561547 70.6708 0 70.7885 0H72.9163C73.0046 0.00210955 73.0903 0.0360469 73.1623 0.097401C73.2344 0.158755 73.2893 0.244687 73.3201 0.344026C73.6713 1.48755 75.1329 5.18947 79.7559 7.25363C81.4289 7.98786 82.9844 9.06138 84.3547 10.4274C84.419 10.4942 84.4979 10.5375 84.5821 10.552C84.6663 10.5665 84.7523 10.5518 84.8297 10.5094C84.9071 10.467 84.9727 10.3989 85.0188 10.3131C85.0648 10.2272 85.0894 10.1273 85.0895 10.0252H85.1016Z" fill="#3A3845"/>
<path d="M91.1505 18.3158C91.1505 17.9131 91.2378 17.5195 91.4012 17.1847C91.5647 16.8499 91.797 16.5891 92.0688 16.4352C92.3405 16.2813 92.6396 16.2413 92.9279 16.3202C93.2163 16.3992 93.4811 16.5935 93.6888 16.8786C93.8965 17.1637 94.0378 17.5268 94.0947 17.9219C94.1516 18.317 94.1217 18.7263 94.0086 19.0981C93.8956 19.4699 93.7046 19.7874 93.4597 20.0104C93.2148 20.2334 92.9271 20.3519 92.633 20.3509C92.438 20.3509 92.245 20.2983 92.0649 20.1959C91.8847 20.0936 91.7212 19.9436 91.5835 19.7546C91.4457 19.5655 91.3366 19.3411 91.2623 19.0943C91.188 18.8474 91.15 18.5829 91.1505 18.3158Z" fill="#3A3845"/>
</svg>
